{
	"asset":{
		"generator":"Khronos glTF Blender I/O v4.0.44",
		"version":"2.0"
	},
	"extensionsUsed":[
		"KHR_materials_specular"
	],
	"scene":0,
	"scenes":[
		{
			"name":"Scene",
			"nodes":[
				32
			]
		}
	],
	"nodes":[
		{
			"mesh":0,
			"name":"bearing back left 1_0"
		},
		{
			"children":[
				0
			],
			"name":"bearing back left 1",
			"rotation":[
				0,
				0.7071068286895752,
				0,
				0.7071067094802856
			],
			"scale":[
				0.1390399932861328,
				0.1390399932861328,
				0.15167999267578125
			],
			"translation":[
				0.920009970664978,
				2.3254001140594482,
				-0.0907600000500679
			]
		},
		{
			"mesh":1,
			"name":"bearing back left 2_0"
		},
		{
			"children":[
				2
			],
			"name":"bearing back left 2",
			"rotation":[
				-0.7071068286895752,
				0,
				0.7071068286895752,
				7.98957898266988e-16
			],
			"scale":[
				0.1390399932861328,
				0.1390400230884552,
				0.15167999267578125
			],
			"translation":[
				0.6899300217628479,
				2.3254001140594482,
				-0.0907599925994873
			]
		},
		{
			"mesh":2,
			"name":"bearing back right 1_0"
		},
		{
			"children":[
				4
			],
			"name":"bearing back right 1",
			"rotation":[
				-0.7071068286895752,
				0,
				0.7071068286895752,
				7.98957898266988e-16
			],
			"scale":[
				0.1390399932861328,
				0.1390400230884552,
				0.15167999267578125
			],
			"translation":[
				-0.9294699430465698,
				2.3262999057769775,
				-0.0907599925994873
			]
		},
		{
			"mesh":3,
			"name":"bearing back right 2_0"
		},
		{
			"children":[
				6
			],
			"name":"bearing back right 2",
			"rotation":[
				0,
				0.7071068286895752,
				0,
				0.7071067094802856
			],
			"scale":[
				0.1390399932861328,
				0.1390399932861328,
				0.15167999267578125
			],
			"translation":[
				-0.6993899941444397,
				2.3262999057769775,
				-0.0907599925994873
			]
		},
		{
			"mesh":4,
			"name":"bearing front left 1_0"
		},
		{
			"children":[
				8
			],
			"name":"bearing front left 1",
			"rotation":[
				0,
				0.7071068286895752,
				0,
				0.7071067094802856
			],
			"scale":[
				0.1390399932861328,
				0.1390399932861328,
				0.15167999267578125
			],
			"translation":[
				0.9220100045204163,
				-2.43326997756958,
				-0.09075998514890671
			]
		},
		{
			"mesh":5,
			"name":"bearing front left 2_0"
		},
		{
			"children":[
				10
			],
			"name":"bearing front left 2",
			"rotation":[
				-0.7071068286895752,
				0,
				0.7071068286895752,
				7.98957898266988e-16
			],
			"scale":[
				0.1390399932861328,
				0.1390400230884552,
				0.15167999267578125
			],
			"translation":[
				0.6919299960136414,
				-2.43326997756958,
				-0.0907599925994873
			]
		},
		{
			"mesh":6,
			"name":"bearing front right 1_0"
		},
		{
			"children":[
				12
			],
			"name":"bearing front right 1",
			"rotation":[
				-0.7071068286895752,
				0,
				0.7071068286895752,
				7.98957898266988e-16
			],
			"scale":[
				0.1390399932861328,
				0.1390400230884552,
				0.15167999267578125
			],
			"translation":[
				-0.9274599552154541,
				-2.4323699474334717,
				-0.0907599925994873
			]
		},
		{
			"mesh":7,
			"name":"bearing front right 2_0"
		},
		{
			"children":[
				14
			],
			"name":"bearing front right 2",
			"rotation":[
				0,
				0.7071068286895752,
				0,
				0.7071067094802856
			],
			"scale":[
				0.1390399932861328,
				0.1390399932861328,
				0.15167999267578125
			],
			"translation":[
				-0.697380006313324,
				-2.4323699474334717,
				-0.0907599925994873
			]
		},
		{
			"mesh":8,
			"name":"deck"
		},
		{
			"mesh":9,
			"name":"grid"
		},
		{
			"children":[
				16,
				17
			],
			"name":"Deck",
			"scale":[
				1.1722198724746704,
				1,
				1
			],
			"translation":[
				0,
				-0.07882999628782272,
				0.6234400272369385
			]
		},
		{
			"mesh":10,
			"name":"Truck back_0"
		},
		{
			"children":[
				19
			],
			"name":"Truck back",
			"rotation":[
				-0.012535931542515755,
				0,
				0,
				0.999921441078186
			],
			"scale":[
				1.0898399353027344,
				1.0000042915344238,
				1.0000041723251343
			],
			"translation":[
				0.0022899992763996124,
				2.1993799209594727,
				0.31738996505737305
			]
		},
		{
			"mesh":11,
			"name":"Truck front_0"
		},
		{
			"children":[
				21
			],
			"name":"Truck front",
			"rotation":[
				0,
				0.012535931542515755,
				-0.999921441078186,
				3.991784333634563e-12
			],
			"scale":[
				1.089840054512024,
				1.0000042915344238,
				1.0000041723251343
			],
			"translation":[
				-0.009740001522004604,
				-2.3063600063323975,
				0.31738993525505066
			]
		},
		{
			"mesh":12,
			"name":"wheel back left_0"
		},
		{
			"children":[
				23
			],
			"name":"wheel back left",
			"rotation":[
				0,
				0.7071068286895752,
				0,
				0.7071067094802856
			],
			"scale":[
				1,
				1,
				1.0908801555633545
			],
			"translation":[
				0.8091599941253662,
				2.3267500400543213,
				-0.09106999635696411
			]
		},
		{
			"mesh":13,
			"name":"wheel back right_0"
		},
		{
			"children":[
				25
			],
			"name":"wheel back right",
			"rotation":[
				-0.4703032374382019,
				-0.528029203414917,
				0.4703032374382019,
				0.5280292630195618
			],
			"scale":[
				1.000004529953003,
				1.000004529953003,
				1.0908799171447754
			],
			"translation":[
				-0.818619966506958,
				2.3249399662017822,
				-0.09106999635696411
			]
		},
		{
			"mesh":14,
			"name":"wheel front left_0"
		},
		{
			"children":[
				27
			],
			"name":"wheel front left",
			"rotation":[
				-0.47692251205444336,
				0.522058367729187,
				-0.47692248225212097,
				0.5220583081245422
			],
			"scale":[
				1.0000046491622925,
				1.0000046491622925,
				1.0908801555633545
			],
			"translation":[
				0.8111599683761597,
				-2.431920051574707,
				-0.09106998145580292
			]
		},
		{
			"mesh":15,
			"name":"wheel front right_0"
		},
		{
			"children":[
				29
			],
			"name":"wheel front right",
			"rotation":[
				-0.7071068286895752,
				0,
				0.7071068286895752,
				3.5961027297653657e-16
			],
			"scale":[
				1,
				1,
				1.0908801555633545
			],
			"translation":[
				-0.8166099190711975,
				-2.433720111846924,
				-0.09106998890638351
			]
		},
		{
			"children":[
				1,
				3,
				5,
				7,
				9,
				11,
				13,
				15,
				18,
				20,
				22,
				24,
				26,
				28,
				30
			],
			"name":"Root"
		},
		{
			"children":[
				31
			],
			"name":"Sketchfab_model",
			"rotation":[
				-0.006616213824599981,
				0.7070758938789368,
				-0.707075834274292,
				0.006616213358938694
			]
		}
	],
	"materials":[
		{
			"doubleSided":true,
			"name":"Bearing.001",
			"pbrMetallicRoughness":{
				"baseColorTexture":{
					"index":0
				},
				"metallicFactor":0.20858895778656006,
				"roughnessFactor":0.6073619723320007
			}
		},
		{
			"doubleSided":true,
			"name":"deckm",
			"pbrMetallicRoughness":{
				"baseColorTexture":{
					"index":1
				},
				"metallicFactor":0,
				"metallicRoughnessTexture":{
					"index":2,
					"texCoord":2
				}
			}
		},
		{
			"doubleSided":true,
			"extensions":{
				"KHR_materials_specular":{
					"specularFactor":0.2699386477470398
				}
			},
			"name":"gridm",
			"pbrMetallicRoughness":{
				"baseColorTexture":{
					"index":3,
					"texCoord":1
				},
				"metallicFactor":0,
				"metallicRoughnessTexture":{
					"index":4,
					"texCoord":1
				}
			}
		},
		{
			"doubleSided":true,
			"name":"truck.001",
			"pbrMetallicRoughness":{
				"baseColorTexture":{
					"index":5
				},
				"metallicFactor":0.5950919985771179,
				"metallicRoughnessTexture":{
					"index":6
				}
			}
		},
		{
			"doubleSided":true,
			"name":"wheel.001",
			"pbrMetallicRoughness":{
				"baseColorTexture":{
					"index":7
				},
				"metallicFactor":0,
				"metallicRoughnessTexture":{
					"index":8
				}
			}
		}
	],
	"meshes":[
		{
			"name":"bearing back left 1_0.001",
			"primitives":[
				{
					"attributes":{
						"POSITION":0,
						"NORMAL":1,
						"TEXCOORD_0":2
					},
					"indices":3,
					"material":0
				}
			]
		},
		{
			"name":"bearing back left 2_0.001",
			"primitives":[
				{
					"attributes":{
						"POSITION":4,
						"NORMAL":5,
						"TEXCOORD_0":6
					},
					"indices":3,
					"material":0
				}
			]
		},
		{
			"name":"bearing back right 1_0.001",
			"primitives":[
				{
					"attributes":{
						"POSITION":7,
						"NORMAL":8,
						"TEXCOORD_0":9
					},
					"indices":3,
					"material":0
				}
			]
		},
		{
			"name":"bearing back right 2_0.001",
			"primitives":[
				{
					"attributes":{
						"POSITION":10,
						"NORMAL":11,
						"TEXCOORD_0":12
					},
					"indices":3,
					"material":0
				}
			]
		},
		{
			"name":"bearing front left 1_0.001",
			"primitives":[
				{
					"attributes":{
						"POSITION":13,
						"NORMAL":14,
						"TEXCOORD_0":15
					},
					"indices":3,
					"material":0
				}
			]
		},
		{
			"name":"bearing front left 2_0.001",
			"primitives":[
				{
					"attributes":{
						"POSITION":16,
						"NORMAL":17,
						"TEXCOORD_0":18
					},
					"indices":3,
					"material":0
				}
			]
		},
		{
			"name":"bearing front right 1_0.001",
			"primitives":[
				{
					"attributes":{
						"POSITION":19,
						"NORMAL":20,
						"TEXCOORD_0":21
					},
					"indices":3,
					"material":0
				}
			]
		},
		{
			"name":"bearing front right 2_0.001",
			"primitives":[
				{
					"attributes":{
						"POSITION":22,
						"NORMAL":23,
						"TEXCOORD_0":24
					},
					"indices":3,
					"material":0
				}
			]
		},
		{
			"name":"Deck_0.002",
			"primitives":[
				{
					"attributes":{
						"POSITION":25,
						"NORMAL":26,
						"TEXCOORD_0":27,
						"TEXCOORD_1":28,
						"TEXCOORD_2":29
					},
					"indices":30,
					"material":1
				}
			]
		},
		{
			"name":"Deck_0.001",
			"primitives":[
				{
					"attributes":{
						"POSITION":31,
						"NORMAL":32,
						"TEXCOORD_0":33,
						"TEXCOORD_1":34,
						"TEXCOORD_2":35
					},
					"indices":36,
					"material":2
				}
			]
		},
		{
			"name":"Truck back_0.001",
			"primitives":[
				{
					"attributes":{
						"POSITION":37,
						"NORMAL":38,
						"TEXCOORD_0":39
					},
					"indices":40,
					"material":3
				}
			]
		},
		{
			"name":"Truck front_0.001",
			"primitives":[
				{
					"attributes":{
						"POSITION":41,
						"NORMAL":42,
						"TEXCOORD_0":43
					},
					"indices":40,
					"material":3
				}
			]
		},
		{
			"name":"wheel back left_0.001",
			"primitives":[
				{
					"attributes":{
						"POSITION":44,
						"NORMAL":45,
						"TEXCOORD_0":46
					},
					"indices":47,
					"material":4
				}
			]
		},
		{
			"name":"wheel back right_0.001",
			"primitives":[
				{
					"attributes":{
						"POSITION":48,
						"NORMAL":49,
						"TEXCOORD_0":50
					},
					"indices":47,
					"material":4
				}
			]
		},
		{
			"name":"wheel front left_0.001",
			"primitives":[
				{
					"attributes":{
						"POSITION":51,
						"NORMAL":52,
						"TEXCOORD_0":53
					},
					"indices":47,
					"material":4
				}
			]
		},
		{
			"name":"wheel front right_0.001",
			"primitives":[
				{
					"attributes":{
						"POSITION":54,
						"NORMAL":55,
						"TEXCOORD_0":56
					},
					"indices":47,
					"material":4
				}
			]
		}
	],
	"textures":[
		{
			"sampler":0,
			"source":0
		},
		{
			"sampler":0,
			"source":1
		},
		{
			"sampler":0,
			"source":2
		},
		{
			"sampler":1,
			"source":3
		},
		{
			"sampler":0,
			"source":2
		},
		{
			"sampler":0,
			"source":4
		},
		{
			"sampler":0,
			"source":5
		},
		{
			"sampler":0,
			"source":6
		},
		{
			"sampler":0,
			"source":7
		}
	],
	"images":[
		{
			"mimeType":"image/png",
			"name":"Image_4",
			"uri":"textures/Image_4.png"
		},
		{
			"mimeType":"image/png",
			"name":"tabla2",
			"uri":"textures/tabla2.png"
		},
		{
			"mimeType":"image/png",
			"name":"Image_6",
			"uri":"textures/Image_6.png"
		},
		{
			"mimeType":"image/png",
			"name":"gridtapebordes",
			"uri":"textures/gridtapebordes.png"
		},
		{
			"mimeType":"image/png",
			"name":"Image_0",
			"uri":"textures/Image_0.png"
		},
		{
			"mimeType":"image/png",
			"name":"Image_1",
			"uri":"textures/Image_1.png"
		},
		{
			"mimeType":"image/png",
			"name":"Image_2",
			"uri":"textures/Image_2.png"
		},
		{
			"mimeType":"image/png",
			"name":"Image_3",
			"uri":"textures/Image_3.png"
		}
	],
	"accessors":[
		{
			"bufferView":0,
			"componentType":5126,
			"count":19,
			"max":[
				0.9848099946975708,
				1,
				0
			],
			"min":[
				-0.9848099946975708,
				-1,
				0
			],
			"type":"VEC3"
		},
		{
			"bufferView":1,
			"componentType":5126,
			"count":19,
			"type":"VEC3"
		},
		{
			"bufferView":2,
			"componentType":5126,
			"count":19,
			"type":"VEC2"
		},
		{
			"bufferView":3,
			"componentType":5123,
			"count":54,
			"type":"SCALAR"
		},
		{
			"bufferView":4,
			"componentType":5126,
			"count":19,
			"max":[
				0.9848099946975708,
				1,
				0
			],
			"min":[
				-0.9848099946975708,
				-1,
				0
			],
			"type":"VEC3"
		},
		{
			"bufferView":5,
			"componentType":5126,
			"count":19,
			"type":"VEC3"
		},
		{
			"bufferView":6,
			"componentType":5126,
			"count":19,
			"type":"VEC2"
		},
		{
			"bufferView":7,
			"componentType":5126,
			"count":19,
			"max":[
				0.9848099946975708,
				1,
				0
			],
			"min":[
				-0.9848099946975708,
				-1,
				0
			],
			"type":"VEC3"
		},
		{
			"bufferView":8,
			"componentType":5126,
			"count":19,
			"type":"VEC3"
		},
		{
			"bufferView":9,
			"componentType":5126,
			"count":19,
			"type":"VEC2"
		},
		{
			"bufferView":10,
			"componentType":5126,
			"count":19,
			"max":[
				0.9848099946975708,
				1,
				0
			],
			"min":[
				-0.9848099946975708,
				-1,
				0
			],
			"type":"VEC3"
		},
		{
			"bufferView":11,
			"componentType":5126,
			"count":19,
			"type":"VEC3"
		},
		{
			"bufferView":12,
			"componentType":5126,
			"count":19,
			"type":"VEC2"
		},
		{
			"bufferView":13,
			"componentType":5126,
			"count":19,
			"max":[
				0.9848099946975708,
				1,
				0
			],
			"min":[
				-0.9848099946975708,
				-1,
				0
			],
			"type":"VEC3"
		},
		{
			"bufferView":14,
			"componentType":5126,
			"count":19,
			"type":"VEC3"
		},
		{
			"bufferView":15,
			"componentType":5126,
			"count":19,
			"type":"VEC2"
		},
		{
			"bufferView":16,
			"componentType":5126,
			"count":19,
			"max":[
				0.9848099946975708,
				1,
				0
			],
			"min":[
				-0.9848099946975708,
				-1,
				0
			],
			"type":"VEC3"
		},
		{
			"bufferView":17,
			"componentType":5126,
			"count":19,
			"type":"VEC3"
		},
		{
			"bufferView":18,
			"componentType":5126,
			"count":19,
			"type":"VEC2"
		},
		{
			"bufferView":19,
			"componentType":5126,
			"count":19,
			"max":[
				0.9848099946975708,
				1,
				0
			],
			"min":[
				-0.9848099946975708,
				-1,
				0
			],
			"type":"VEC3"
		},
		{
			"bufferView":20,
			"componentType":5126,
			"count":19,
			"type":"VEC3"
		},
		{
			"bufferView":21,
			"componentType":5126,
			"count":19,
			"type":"VEC2"
		},
		{
			"bufferView":22,
			"componentType":5126,
			"count":19,
			"max":[
				0.9848099946975708,
				1,
				0
			],
			"min":[
				-0.9848099946975708,
				-1,
				0
			],
			"type":"VEC3"
		},
		{
			"bufferView":23,
			"componentType":5126,
			"count":19,
			"type":"VEC3"
		},
		{
			"bufferView":24,
			"componentType":5126,
			"count":19,
			"type":"VEC2"
		},
		{
			"bufferView":25,
			"componentType":5126,
			"count":115,
			"max":[
				0.8098999857902527,
				4.203460216522217,
				0.33458998799324036
			],
			"min":[
				-0.8098999857902527,
				-4.203460216522217,
				-0.15131999552249908
			],
			"type":"VEC3"
		},
		{
			"bufferView":26,
			"componentType":5126,
			"count":115,
			"type":"VEC3"
		},
		{
			"bufferView":27,
			"componentType":5126,
			"count":115,
			"type":"VEC2"
		},
		{
			"bufferView":28,
			"componentType":5126,
			"count":115,
			"type":"VEC2"
		},
		{
			"bufferView":29,
			"componentType":5126,
			"count":115,
			"type":"VEC2"
		},
		{
			"bufferView":30,
			"componentType":5123,
			"count":528,
			"type":"SCALAR"
		},
		{
			"bufferView":31,
			"componentType":5126,
			"count":575,
			"max":[
				0.831849992275238,
				4.205699920654297,
				0.38585999608039856
			],
			"min":[
				-0.831849992275238,
				-4.205699920654297,
				-0.12602999806404114
			],
			"type":"VEC3"
		},
		{
			"bufferView":32,
			"componentType":5126,
			"count":575,
			"type":"VEC3"
		},
		{
			"bufferView":33,
			"componentType":5126,
			"count":575,
			"type":"VEC2"
		},
		{
			"bufferView":34,
			"componentType":5126,
			"count":575,
			"type":"VEC2"
		},
		{
			"bufferView":35,
			"componentType":5126,
			"count":575,
			"type":"VEC2"
		},
		{
			"bufferView":36,
			"componentType":5123,
			"count":1776,
			"type":"SCALAR"
		},
		{
			"bufferView":37,
			"componentType":5126,
			"count":1879,
			"max":[
				0.9222999811172485,
				0.43678998947143555,
				0.18368999660015106
			],
			"min":[
				-0.9346799850463867,
				-0.4157699942588806,
				-0.5258700251579285
			],
			"type":"VEC3"
		},
		{
			"bufferView":38,
			"componentType":5126,
			"count":1879,
			"type":"VEC3"
		},
		{
			"bufferView":39,
			"componentType":5126,
			"count":1879,
			"type":"VEC2"
		},
		{
			"bufferView":40,
			"componentType":5123,
			"count":5286,
			"type":"SCALAR"
		},
		{
			"bufferView":41,
			"componentType":5126,
			"count":1879,
			"max":[
				0.9222999811172485,
				0.43678998947143555,
				0.18368999660015106
			],
			"min":[
				-0.9346799850463867,
				-0.4157699942588806,
				-0.5258700251579285
			],
			"type":"VEC3"
		},
		{
			"bufferView":42,
			"componentType":5126,
			"count":1879,
			"type":"VEC3"
		},
		{
			"bufferView":43,
			"componentType":5126,
			"count":1879,
			"type":"VEC2"
		},
		{
			"bufferView":44,
			"componentType":5126,
			"count":336,
			"max":[
				0.2952300012111664,
				0.29739999771118164,
				0.13636000454425812
			],
			"min":[
				-0.2952300012111664,
				-0.29739999771118164,
				-0.13636000454425812
			],
			"type":"VEC3"
		},
		{
			"bufferView":45,
			"componentType":5126,
			"count":336,
			"type":"VEC3"
		},
		{
			"bufferView":46,
			"componentType":5126,
			"count":336,
			"type":"VEC2"
		},
		{
			"bufferView":47,
			"componentType":5123,
			"count":1092,
			"type":"SCALAR"
		},
		{
			"bufferView":48,
			"componentType":5126,
			"count":336,
			"max":[
				0.2952300012111664,
				0.29739999771118164,
				0.13636000454425812
			],
			"min":[
				-0.2952300012111664,
				-0.29739999771118164,
				-0.13636000454425812
			],
			"type":"VEC3"
		},
		{
			"bufferView":49,
			"componentType":5126,
			"count":336,
			"type":"VEC3"
		},
		{
			"bufferView":50,
			"componentType":5126,
			"count":336,
			"type":"VEC2"
		},
		{
			"bufferView":51,
			"componentType":5126,
			"count":336,
			"max":[
				0.2952300012111664,
				0.29739999771118164,
				0.13636000454425812
			],
			"min":[
				-0.2952300012111664,
				-0.29739999771118164,
				-0.13636000454425812
			],
			"type":"VEC3"
		},
		{
			"bufferView":52,
			"componentType":5126,
			"count":336,
			"type":"VEC3"
		},
		{
			"bufferView":53,
			"componentType":5126,
			"count":336,
			"type":"VEC2"
		},
		{
			"bufferView":54,
			"componentType":5126,
			"count":336,
			"max":[
				0.2952300012111664,
				0.29739999771118164,
				0.13636000454425812
			],
			"min":[
				-0.2952300012111664,
				-0.29739999771118164,
				-0.13636000454425812
			],
			"type":"VEC3"
		},
		{
			"bufferView":55,
			"componentType":5126,
			"count":336,
			"type":"VEC3"
		},
		{
			"bufferView":56,
			"componentType":5126,
			"count":336,
			"type":"VEC2"
		}
	],
	"bufferViews":[
		{
			"buffer":0,
			"byteLength":228,
			"byteOffset":0,
			"target":34962
		},
		{
			"buffer":0,
			"byteLength":228,
			"byteOffset":228,
			"target":34962
		},
		{
			"buffer":0,
			"byteLength":152,
			"byteOffset":456,
			"target":34962
		},
		{
			"buffer":0,
			"byteLength":108,
			"byteOffset":608,
			"target":34963
		},
		{
			"buffer":0,
			"byteLength":228,
			"byteOffset":716,
			"target":34962
		},
		{
			"buffer":0,
			"byteLength":228,
			"byteOffset":944,
			"target":34962
		},
		{
			"buffer":0,
			"byteLength":152,
			"byteOffset":1172,
			"target":34962
		},
		{
			"buffer":0,
			"byteLength":228,
			"byteOffset":1324,
			"target":34962
		},
		{
			"buffer":0,
			"byteLength":228,
			"byteOffset":1552,
			"target":34962
		},
		{
			"buffer":0,
			"byteLength":152,
			"byteOffset":1780,
			"target":34962
		},
		{
			"buffer":0,
			"byteLength":228,
			"byteOffset":1932,
			"target":34962
		},
		{
			"buffer":0,
			"byteLength":228,
			"byteOffset":2160,
			"target":34962
		},
		{
			"buffer":0,
			"byteLength":152,
			"byteOffset":2388,
			"target":34962
		},
		{
			"buffer":0,
			"byteLength":228,
			"byteOffset":2540,
			"target":34962
		},
		{
			"buffer":0,
			"byteLength":228,
			"byteOffset":2768,
			"target":34962
		},
		{
			"buffer":0,
			"byteLength":152,
			"byteOffset":2996,
			"target":34962
		},
		{
			"buffer":0,
			"byteLength":228,
			"byteOffset":3148,
			"target":34962
		},
		{
			"buffer":0,
			"byteLength":228,
			"byteOffset":3376,
			"target":34962
		},
		{
			"buffer":0,
			"byteLength":152,
			"byteOffset":3604,
			"target":34962
		},
		{
			"buffer":0,
			"byteLength":228,
			"byteOffset":3756,
			"target":34962
		},
		{
			"buffer":0,
			"byteLength":228,
			"byteOffset":3984,
			"target":34962
		},
		{
			"buffer":0,
			"byteLength":152,
			"byteOffset":4212,
			"target":34962
		},
		{
			"buffer":0,
			"byteLength":228,
			"byteOffset":4364,
			"target":34962
		},
		{
			"buffer":0,
			"byteLength":228,
			"byteOffset":4592,
			"target":34962
		},
		{
			"buffer":0,
			"byteLength":152,
			"byteOffset":4820,
			"target":34962
		},
		{
			"buffer":0,
			"byteLength":1380,
			"byteOffset":4972,
			"target":34962
		},
		{
			"buffer":0,
			"byteLength":1380,
			"byteOffset":6352,
			"target":34962
		},
		{
			"buffer":0,
			"byteLength":920,
			"byteOffset":7732,
			"target":34962
		},
		{
			"buffer":0,
			"byteLength":920,
			"byteOffset":8652,
			"target":34962
		},
		{
			"buffer":0,
			"byteLength":920,
			"byteOffset":9572,
			"target":34962
		},
		{
			"buffer":0,
			"byteLength":1056,
			"byteOffset":10492,
			"target":34963
		},
		{
			"buffer":0,
			"byteLength":6900,
			"byteOffset":11548,
			"target":34962
		},
		{
			"buffer":0,
			"byteLength":6900,
			"byteOffset":18448,
			"target":34962
		},
		{
			"buffer":0,
			"byteLength":4600,
			"byteOffset":25348,
			"target":34962
		},
		{
			"buffer":0,
			"byteLength":4600,
			"byteOffset":29948,
			"target":34962
		},
		{
			"buffer":0,
			"byteLength":4600,
			"byteOffset":34548,
			"target":34962
		},
		{
			"buffer":0,
			"byteLength":3552,
			"byteOffset":39148,
			"target":34963
		},
		{
			"buffer":0,
			"byteLength":22548,
			"byteOffset":42700,
			"target":34962
		},
		{
			"buffer":0,
			"byteLength":22548,
			"byteOffset":65248,
			"target":34962
		},
		{
			"buffer":0,
			"byteLength":15032,
			"byteOffset":87796,
			"target":34962
		},
		{
			"buffer":0,
			"byteLength":10572,
			"byteOffset":102828,
			"target":34963
		},
		{
			"buffer":0,
			"byteLength":22548,
			"byteOffset":113400,
			"target":34962
		},
		{
			"buffer":0,
			"byteLength":22548,
			"byteOffset":135948,
			"target":34962
		},
		{
			"buffer":0,
			"byteLength":15032,
			"byteOffset":158496,
			"target":34962
		},
		{
			"buffer":0,
			"byteLength":4032,
			"byteOffset":173528,
			"target":34962
		},
		{
			"buffer":0,
			"byteLength":4032,
			"byteOffset":177560,
			"target":34962
		},
		{
			"buffer":0,
			"byteLength":2688,
			"byteOffset":181592,
			"target":34962
		},
		{
			"buffer":0,
			"byteLength":2184,
			"byteOffset":184280,
			"target":34963
		},
		{
			"buffer":0,
			"byteLength":4032,
			"byteOffset":186464,
			"target":34962
		},
		{
			"buffer":0,
			"byteLength":4032,
			"byteOffset":190496,
			"target":34962
		},
		{
			"buffer":0,
			"byteLength":2688,
			"byteOffset":194528,
			"target":34962
		},
		{
			"buffer":0,
			"byteLength":4032,
			"byteOffset":197216,
			"target":34962
		},
		{
			"buffer":0,
			"byteLength":4032,
			"byteOffset":201248,
			"target":34962
		},
		{
			"buffer":0,
			"byteLength":2688,
			"byteOffset":205280,
			"target":34962
		},
		{
			"buffer":0,
			"byteLength":4032,
			"byteOffset":207968,
			"target":34962
		},
		{
			"buffer":0,
			"byteLength":4032,
			"byteOffset":212000,
			"target":34962
		},
		{
			"buffer":0,
			"byteLength":2688,
			"byteOffset":216032,
			"target":34962
		}
	],
	"samplers":[
		{
			"magFilter":9729,
			"minFilter":9987
		},
		{
			"magFilter":9729,
			"minFilter":9987,
			"wrapS":33071,
			"wrapT":33071
		}
	],
	"buffers":[
		{
			"byteLength":218720,
			"uri":"skt.bin"
		}
	]
}
